/* XPM */
static char * top_left_active_xpm[] = {
"8 22 22 1",
" 	c None",
".	c #424242",
"+	c #202020",
"@	c #404040",
"#	c #1F1F1F",
"$	c #2F2F2F",
"%	c #3A3A3A",
"&	c #1E1E1E",
"*	c #2D2D2D",
"=	c #383838",
"-	c #1D1D1D",
";	c #363636",
">	c #1C1C1C",
",	c #343434",
"'	c #1B1B1B",
")	c #323232",
"!	c #1A1A1A",
"~	c #303030",
"{	c #191919",
"]	c #2E2E2E",
"^	c #2E2F2E",
"/	c #2F2E2E",
" .++++++",
"@#$%%%%%",
"&*======",
"-;;;;;;;",
">,,,,,,,",
"')))))))",
"!~~~~~~~",
"{]]^/]]]",
"{]]]]]]]",
"{]]]]]]]",
"{]]]]]]]",
"{]]]]]]]",
"{]]]]]]]",
"{]]]]]]]",
"{]]]]]]]",
"{]]]]]]]",
"{]]]]]]]",
"{]]]]]]]",
"{]]]]]]]",
"{]]]]]]]",
"{]]]]]]]",
"{]]]]]]]"};
